<?xml version="1.0" encoding="utf-8"?>
<!-- Generator: Adobe Illustrator 23.1.1, SVG Export Plug-In . SVG Version: 6.00 Build 0)  -->
<svg version="1.1" id="Layer_1" xmlns="http://www.w3.org/2000/svg" xmlns:xlink="http://www.w3.org/1999/xlink" x="0px" y="0px"
	 viewBox="0 0 307.78 53.35" style="enable-background:new 0 0 307.78 53.35;" xml:space="preserve">
<style type="text/css">
	.st0{fill:#FFFFFF;}
	.st1{fill:#00E1D8;}
</style>
<g>
	<path class="st0" d="M23.65,29.79c1.08,1.28,1.62,2.93,1.62,4.95c0,2.59-0.96,4.59-2.87,5.98c-1.92,1.4-4.74,2.09-8.49,2.09H0
		V12.58h13.04c3.37,0,5.98,0.68,7.84,2.03c1.86,1.35,2.79,3.27,2.79,5.75c0,1.67-0.41,3.09-1.23,4.25
		c-0.82,1.17-1.95,2.04-3.39,2.61C21.04,27.66,22.57,28.51,23.65,29.79z M3.2,15.22v10.97h9.63c2.45,0,4.33-0.47,5.66-1.4
		c1.32-0.94,1.99-2.3,1.99-4.08s-0.66-3.15-1.99-4.08c-1.32-0.94-3.21-1.4-5.66-1.4H3.2z M20,38.8c1.38-0.92,2.07-2.36,2.07-4.32
		c0-3.77-2.74-5.66-8.21-5.66H3.2v11.36h10.67C16.57,40.18,18.62,39.72,20,38.8z"/>
	<path class="st0" d="M50.03,40.05v2.76H28.65V12.58h20.73v2.76H31.84V26.1h15.64v2.72H31.84v11.23H50.03z"/>
	<path class="st0" d="M62.11,42.67c-2.38-0.56-4.33-1.32-5.85-2.27l3.28-7.43c1.44,0.83,3.05,1.5,4.84,2.01s3.5,0.76,5.14,0.76
		c1.41,0,2.42-0.14,3.02-0.41c0.6-0.27,0.91-0.68,0.91-1.23c0-0.63-0.4-1.11-1.19-1.43c-0.79-0.32-2.09-0.66-3.91-1.04
		c-2.33-0.49-4.28-1.02-5.83-1.58c-1.55-0.56-2.91-1.48-4.06-2.76c-1.15-1.28-1.73-3.02-1.73-5.21c0-1.9,0.53-3.63,1.6-5.18
		c1.07-1.55,2.66-2.78,4.77-3.67c2.12-0.89,4.69-1.34,7.71-1.34c2.07,0,4.11,0.22,6.11,0.67c2,0.45,3.76,1.1,5.29,1.97l-3.07,7.39
		c-2.97-1.5-5.77-2.25-8.42-2.25c-2.62,0-3.93,0.63-3.93,1.9c0,0.6,0.39,1.06,1.17,1.36c0.78,0.3,2.06,0.63,3.84,0.97
		c2.3,0.43,4.25,0.93,5.83,1.49c1.58,0.56,2.96,1.48,4.12,2.74c1.17,1.27,1.75,3,1.75,5.18c0,1.9-0.53,3.62-1.6,5.16
		c-1.07,1.54-2.66,2.76-4.77,3.67s-4.69,1.36-7.71,1.36C66.93,43.51,64.49,43.23,62.11,42.67z"/>
	<path class="st1" d="M122.83,5.18C126.87,3.07,131.51,2,136.61,2c5.1,0,9.73,1.07,13.78,3.18c2.71,1.42,5.04,3.23,6.97,5.4h2.6
		c-2.28-2.95-5.18-5.36-8.65-7.17C146.98,1.15,142.03,0,136.61,0c-5.42,0-10.37,1.15-14.7,3.41c-3.47,1.81-6.36,4.22-8.65,7.17h2.6
		C117.79,8.41,120.12,6.6,122.83,5.18z"/>
	<path class="st1" d="M159.88,39.38c-2.28,3.73-5.47,6.69-9.5,8.79c-4.05,2.11-8.68,3.18-13.78,3.18c-5.09,0-9.73-1.07-13.78-3.18
		c-1.81-0.94-3.43-2.07-4.9-3.35h-1.51h-1.4c1.96,2.03,4.25,3.75,6.88,5.12c4.33,2.26,9.28,3.41,14.7,3.41
		c5.42,0,10.37-1.15,14.7-3.41c3.93-2.05,7.13-4.87,9.53-8.38l-0.79-2.48C159.99,39.18,159.94,39.28,159.88,39.38z"/>
	<polygon class="st0" points="114.25,12.58 111.85,12.58 106.49,12.58 106.49,26.32 95,12.58 86.62,12.58 86.62,42.82 96.55,42.82 
		96.55,29.08 108.04,42.82 113.3,42.82 115.9,42.82 116.42,42.82 116.42,12.58 	"/>
	<polygon class="st0" points="195.22,12.58 189.65,29.99 184.38,12.58 175.01,12.58 169.43,29.77 164.16,12.58 161.36,12.58 
		158.97,12.58 153.67,12.58 161.34,36.56 162.22,39.3 163.34,42.82 174.27,42.82 179.41,26.66 184.29,42.82 195.22,42.82 
		204.9,12.58 	"/>
	<g>
		<path class="st0" d="M211.68,41.76c-2.02-0.71-3.59-1.64-4.69-2.8l1.23-2.42c1.08,1.08,2.51,1.95,4.29,2.61
			c1.78,0.67,3.62,1,5.52,1c2.66,0,4.66-0.49,5.99-1.47c1.33-0.98,2-2.24,2-3.8c0-1.19-0.36-2.14-1.08-2.85
			c-0.72-0.71-1.61-1.25-2.65-1.64c-1.05-0.38-2.51-0.8-4.37-1.25c-2.24-0.57-4.02-1.11-5.35-1.64c-1.33-0.52-2.47-1.32-3.42-2.4
			c-0.95-1.08-1.42-2.53-1.42-4.37c0-1.5,0.4-2.87,1.19-4.1c0.79-1.23,2.01-2.21,3.65-2.95c1.64-0.74,3.68-1.1,6.11-1.1
			c1.7,0,3.36,0.23,4.99,0.7c1.63,0.47,3.04,1.11,4.23,1.93l-1.06,2.51c-1.25-0.82-2.58-1.44-3.99-1.85
			c-1.42-0.41-2.8-0.62-4.16-0.62c-2.6,0-4.57,0.5-5.88,1.51c-1.32,1.01-1.97,2.3-1.97,3.89c0,1.19,0.36,2.14,1.08,2.87
			c0.72,0.72,1.63,1.27,2.72,1.66s2.55,0.8,4.4,1.25c2.18,0.54,3.94,1.07,5.29,1.59c1.35,0.52,2.48,1.32,3.42,2.38
			c0.93,1.06,1.4,2.5,1.4,4.31c0,1.5-0.4,2.87-1.21,4.1c-0.81,1.23-2.05,2.21-3.72,2.93c-1.67,0.72-3.72,1.08-6.16,1.08
			C215.82,42.82,213.71,42.46,211.68,41.76z"/>
		<path class="st0" d="M235.07,39.5c-2.15-2.21-3.23-5.42-3.23-9.64V12.84h3.14v16.9c0,3.45,0.78,6.03,2.33,7.73
			c1.56,1.7,3.81,2.55,6.75,2.55c2.97,0,5.24-0.85,6.79-2.55c1.56-1.7,2.33-4.27,2.33-7.73v-16.9h3.06v17.03
			c0,4.22-1.07,7.43-3.21,9.64c-2.14,2.21-5.13,3.31-8.98,3.31C240.22,42.82,237.22,41.71,235.07,39.5z"/>
		<path class="st0" d="M280.21,42.56l-6.79-9.55c-0.76,0.08-1.56,0.13-2.38,0.13h-7.98v9.43h-3.14V12.84h11.13
			c3.79,0,6.77,0.91,8.92,2.72c2.15,1.81,3.23,4.3,3.23,7.47c0,2.32-0.59,4.28-1.76,5.88c-1.18,1.6-2.85,2.75-5.03,3.46l7.26,10.19
			H280.21z M277.7,28.51c1.56-1.3,2.34-3.13,2.34-5.48c0-2.41-0.78-4.25-2.34-5.54c-1.56-1.29-3.81-1.93-6.75-1.93h-7.9v14.91h7.9
			C273.89,30.46,276.14,29.81,277.7,28.51z"/>
		<path class="st0" d="M307.78,39.84v2.72h-21.02V12.84h20.38v2.72H289.9v10.57h15.37v2.68H289.9v11.04H307.78z"/>
	</g>
	<polygon class="st0" points="141.17,20 147.61,16.29 151.95,24.12 145.64,27.68 151.96,31.54 147.49,39.19 141.1,35.45 
		140.96,42.97 132.09,42.89 131.99,35.4 125.6,39.09 121.29,31.29 127.77,27.74 121.25,23.84 125.73,16.2 132.13,19.99 
		132.21,12.48 141.15,12.51 	"/>
</g>
</svg>
