<svg xmlns="http://www.w3.org/2000/svg" width="113" height="30" viewBox="0 0 113 30"><defs><clipPath id="2j22a"><path d="M0 30h113V0H0z"/></clipPath></defs><g><g><g><path fill="#fefefe" d="M12.733 4.137H1.973v1.088h8.118c1.143.019 1.796.15 2.226.487.52.413.683 1.031.683 2.588 0 .919-.044 1.313-.223 1.688-.356.768-.905 1.012-2.196 1.012H.09V8.675h10.908v-1.2h-8.37C.564 7.475 0 6.894 0 4.755 0 2.676.564 2 2.315 2h10.418z"/></g><g><path fill="#fefefe" d="M16 2h11.073C29.423 2 30 2.675 30 5.469V11h-2.078V4.137h-9.829V11H16z"/></g><g/><g clip-path="url(#2j22a)"><path fill="#fefefe" d="M34.584 11C32.684 11 32 10.325 32 8.431V4.72C32 2.806 32.623 2 34.113 2h9.181C45.331 2 46 2.638 46 4.625v3.806C46 10.344 45.453 11 43.902 11zm-.47-2.137h9.788V4.325h-9.789z"/></g><g clip-path="url(#2j22a)"><path fill="#fefefe" d="M50.275 2l2.713 6.863L56.55 2h2.792l3.875 6.956L65.757 2H68l-3.435 9h-2.792l-3.906-7.2-3.592 7.2h-2.62L48 2z"/></g><g clip-path="url(#2j22a)"><path fill="#fefefe" d="M69 8h10V6H69z"/></g><g clip-path="url(#2j22a)"><path fill="#fefefe" d="M.534 30H0V19.61c0-1.513.625-2.371 1.876-2.575.172-.023.3-.035.38-.035H3v.576h-.695c-.07 0-.176.012-.316.035a2.169 2.169 0 0 0-.715.284 1.398 1.398 0 0 0-.461.502c-.116.21-.198.471-.247.786a3.044 3.044 0 0 0-.032.375v.629H3v.594H.534z"/></g><g clip-path="url(#2j22a)"><path fill="#fefefe" d="M5 27.197v-4.27c0-.64.057-1.126.17-1.455.114-.329.323-.633.628-.911.227-.22.456-.368.689-.445.232-.077.578-.116 1.037-.116H9.6c.815 0 1.42.236 1.812.707.392.472.588 1.212.588 2.22v4.27c0 .398-.024.733-.074 1.006a2.286 2.286 0 0 1-.232.698c-.106.193-.26.39-.46.592-.238.207-.461.344-.67.409-.21.065-.53.098-.964.098H7.524c-.361 0-.62-.013-.778-.04a1.822 1.822 0 0 1-.492-.165C5.418 29.362 5 28.496 5 27.197zm.511.18c0 .492.072.88.217 1.165.144.284.39.521.736.71.128.06.261.101.398.125.137.024.363.036.678.036h2.029c.3 0 .516-.012.65-.036.134-.024.255-.065.364-.124.325-.184.555-.414.69-.689.133-.276.2-.653.2-1.133v-4.675c0-.462-.04-.818-.123-1.067a1.613 1.613 0 0 0-.434-.666 1.231 1.231 0 0 0-.503-.333c-.176-.057-.457-.085-.844-.085h-2.03c-.35 0-.589.01-.715.031a.967.967 0 0 0-.36.138c-.341.177-.585.42-.732.729-.147.308-.22.726-.22 1.253z"/></g><g clip-path="url(#2j22a)"><path fill="#fefefe" d="M17.533 30H17l.024-7.18c0-.599.071-1.097.215-1.494.143-.398.368-.702.674-.913.305-.21.703-.342 1.194-.395l.141-.014c.042-.003.097-.004.164-.004H20v.605h-.674c-.094 0-.167.006-.219.018-.538.053-.935.259-1.19.617-.256.359-.384.888-.384 1.587z"/></g><g clip-path="url(#2j22a)"><path fill="#fefefe" d="M25.63 30c-1.031 0-1.728-.296-2.088-.888A3.71 3.71 0 0 1 23 27.14v-4.254c0-.473.044-.888.133-1.243a2.29 2.29 0 0 1 .409-.88c.182-.23.415-.406.697-.528.282-.121.614-.193.995-.217.087-.012.206-.018.358-.018l2.067.018c.57.012 1.024.116 1.365.311.34.196.588.509.743.939.155.43.233 1.016.233 1.757v.267l-6.497 3.345.03.435c.036.875.195 1.484.478 1.827.282.343.778.515 1.49.515H30V30zm-2.127-4.02l5.973-3.07c.02-.165.03-.292.03-.38-.025-.645-.204-1.124-.538-1.438-.333-.313-.841-.47-1.524-.47h-1.718c-.545 0-.978.07-1.298.213-.321.142-.556.367-.703.674-.148.308-.222.716-.222 1.224z"/></g><g clip-path="url(#2j22a)"><path fill="#fefefe" d="M35.239 29.742a2.406 2.406 0 0 1-.697-.578 2.256 2.256 0 0 1-.408-.806 3.955 3.955 0 0 1-.134-1.09v-4.537c0-1.82.807-2.731 2.421-2.731h3.53v.605h-3.44c-.326 0-.58.022-.758.066-.18.045-.335.115-.465.21-.288.19-.485.41-.591.661-.106.252-.159.621-.159 1.107v4.533c0 .409.053.751.159 1.027.106.275.27.52.493.733.212.19.419.315.62.377.2.063.505.094.913.094H40V30h-3.31c-.647 0-1.13-.086-1.451-.258"/></g><g clip-path="url(#2j22a)"><path fill="#fefefe" d="M43.5 29.124c-.318-.448-.485-1.007-.5-1.677v-1.495c0-.54.09-1.008.271-1.406.181-.397.441-.703.78-.916.339-.214.73-.32 1.173-.32h4.287v-.63c0-.68-.16-1.196-.478-1.547-.318-.352-.768-.528-1.349-.528h-4.661V20h4.41c1.711 0 2.567.928 2.567 2.785v4.52c0 .468-.034.839-.103 1.112-.069.272-.198.54-.386.8a1.951 1.951 0 0 1-.7.587c-.267.13-.592.196-.974.196H45.27a3.91 3.91 0 0 1-.405-.035c-.591-.113-1.046-.394-1.364-.841zm.004-1.713c0 1.127.493 1.783 1.478 1.966.102.024.189.036.26.036h2.618c.536 0 .944-.172 1.225-.516.28-.344.42-.828.42-1.45v-3.532h-4.31c-.055 0-.15.012-.282.035-.46.083-.81.292-1.049.628-.24.335-.36.787-.36 1.356z"/></g><g clip-path="url(#2j22a)"><path fill="#fefefe" d="M56.608 25.231c-.9 0-1.56-.197-1.979-.592-.42-.394-.629-.998-.629-1.812v-.623c0-.148.017-.317.05-.507.15-.59.418-1.02.804-1.29.386-.272.938-.407 1.654-.407H61v.605h-4.475c-.422 0-.715.02-.88.057a1.228 1.228 0 0 0-.487.253c-.405.32-.608.743-.608 1.27v.621c0 .628.163 1.082.487 1.363.325.281.855.422 1.588.422h2.225c.677 0 1.194.203 1.55.61.355.405.533.997.533 1.774v.507c0 .605-.08 1.068-.242 1.388-.2.421-.449.715-.745.88-.297.167-.721.25-1.271.25h-4.642v-.587h4.658c.522 0 .922-.125 1.196-.373.275-.249.434-.64.48-1.172a3.14 3.14 0 0 0 .016-.382l-.033-.506c-.029-.633-.157-1.083-.388-1.35-.23-.265-.618-.399-1.162-.399z"/></g><g clip-path="url(#2j22a)"><path fill="#fefefe" d="M64.52 30H64V17h.52v3.187H67v.594h-2.48z"/></g><g clip-path="url(#2j22a)"><path fill="#fefefe" d="M70.144 29.854a.467.467 0 0 1-.144-.35c0-.107.048-.226.144-.358a.504.504 0 0 1 .363-.146.49.49 0 0 1 .321.12c.115.11.172.242.172.397a.447.447 0 0 1-.158.35.481.481 0 0 1-.349.133.446.446 0 0 1-.35-.146"/></g><g clip-path="url(#2j22a)"><path fill="#fefefe" d="M74.826 28.82a1.627 1.627 0 0 1-.465-.405 1.614 1.614 0 0 1-.271-.564 2.906 2.906 0 0 1-.09-.763v-3.176c0-1.275.538-1.912 1.614-1.912h2.353v.423h-2.293c-.217 0-.386.016-.506.047a.867.867 0 0 0-.31.146 1.04 1.04 0 0 0-.393.464c-.071.176-.106.434-.106.774v3.173c0 .286.035.526.106.72.07.192.18.363.329.512.14.133.278.221.413.265.134.043.336.065.608.065H78V29h-2.207c-.43 0-.753-.06-.967-.18"/></g><g clip-path="url(#2j22a)"><path fill="#fefefe" d="M81 27.038V24.05c0-.448.033-.788.097-1.018a1.61 1.61 0 0 1 .359-.638 1.06 1.06 0 0 1 .394-.312c.132-.054.33-.081.593-.081h1.186c.466 0 .81.165 1.035.495.224.33.336.848.336 1.554v2.99c0 .278-.014.512-.042.703-.028.19-.072.354-.133.489-.06.135-.148.273-.263.414-.136.145-.263.241-.383.287-.12.045-.303.068-.55.068h-1.186a2.47 2.47 0 0 1-.445-.028.915.915 0 0 1-.281-.115c-.478-.303-.717-.91-.717-1.819zm.292.126c0 .345.041.616.124.815.083.2.223.365.42.498.074.042.15.07.228.087.078.017.207.025.387.025h1.16c.17 0 .295-.008.372-.025a.598.598 0 0 0 .207-.087c.186-.128.317-.29.394-.482.077-.193.115-.457.115-.793v-3.273c0-.323-.023-.572-.07-.746a1.18 1.18 0 0 0-.248-.467.707.707 0 0 0-.288-.233c-.1-.04-.26-.06-.482-.06h-1.16c-.2 0-.337.008-.409.022a.497.497 0 0 0-.205.097 1.04 1.04 0 0 0-.419.51c-.084.216-.126.508-.126.877z"/></g><g clip-path="url(#2j22a)"><path fill="#fefefe" d="M88.358 29H88v-4.907c0-1.395.55-2.093 1.647-2.093h.596c.473 0 .84.18 1.1.54.055.075.118.19.19.345.04-.126.104-.24.192-.346.26-.359.625-.539 1.095-.539h.602c1.052 0 1.578.698 1.578 2.093V29h-.358v-5.096c0-.49-.108-.858-.325-1.107-.217-.25-.523-.373-.917-.373h-.58c-.105 0-.2.012-.287.037-.2.062-.36.156-.485.28a1.108 1.108 0 0 0-.274.516c-.058.22-.087.505-.087.853V29h-.369v-4.89c0-.531-.06-.918-.18-1.16-.122-.243-.328-.406-.62-.49a.998.998 0 0 0-.277-.036h-.573c-.275 0-.51.054-.706.161a1.042 1.042 0 0 0-.45.498c-.103.224-.154.498-.154.821z"/></g><g clip-path="url(#2j22a)"><path fill="#fefefe" d="M85.47 0c2.847 1.003 2.818 3.463 2.818 3.463 5.611 0 4.524 4.415 4.524 4.415 4.181 0 2.993 3.833 2.993 3.833H83V14h14V0z"/></g><g clip-path="url(#2j22a)"><path fill="#fefefe" d="M99 0v4.219h7.94V9.29l.993-1.083a.497.497 0 1 1 .732.67l-2.234 2.44-2.234-2.44a.497.497 0 1 1 .733-.67l1.017 1.11V5.213H99V14h14V0z"/></g><g clip-path="url(#2j22a)"><path fill="#fefefe" d="M108.282 19.025c-.662.421-2.008.996-3.43-.025-.047.891-.342 2.624-1.852 3.581.67.45 1.862 1.52 1.822 3.419.685-.37 2.097-.901 3.478-.004.04-.852.308-2.514 1.7-3.465a4.355 4.355 0 0 1-1.718-3.506"/></g><g clip-path="url(#2j22a)"><path fill="#fefefe" d="M99 16h14v14H99zm13.005 7.8l-.902-.858.888-.862-.347-.357-1.077 1.046-.082-.038c-.02-.01-2.085-1.002-1.829-3.498l.008-.07 1.315-.231-.086-.49-1.151.203-.204-1.156-.49.087.248 1.402-.049.041c-.074.064-1.835 1.539-3.68-.037l-.116-.1.234-1.327-.49-.087-.217 1.23-1.188-.21-.086.49 1.457.256c.019.321.08 2.628-2.029 3.52l-.128.054-1.033-1.044-.354.35.858.866-.871.861.35.353L102 23.158l.135.055c.094.038 2.3.962 1.953 3.36l-.017.117-1.432.254.086.489 1.2-.213.213 1.207.49-.086-.257-1.455.107-.075c.081-.057 2.012-1.381 3.772.014l.111.088-.251 1.423.49.086.213-1.207 1.167.206.086-.49-1.406-.247-.008-.078c-.002-.025-.223-2.463 1.833-3.425l.099-.046 1.077 1.025z"/></g></g></g></svg>