<svg xmlns="http://www.w3.org/2000/svg" width="26" height="18" viewBox="0 0 26 18"><g><g><g><path fill="#00e1d8" d="M9.892 8.47c0-3.712 2.938-6.663 6.633-6.663s6.632 2.95 6.632 6.663c0 3.712-2.937 6.662-6.632 6.662s-6.633-2.95-6.633-6.662zM26 16.666l-2.843-2.857c2.938-3.715 2.274-9.144-1.42-12.002C18.04-1.05 12.64-.479 9.796 3.236c-2.842 3.715-2.273 9.049 1.422 12.002a8.517 8.517 0 0 0 10.707-.096L24.768 18z"/></g><g><path fill="#00e1d8" d="M9 2H0v2h7.768c.38-.7.758-1.4 1.232-2z"/></g><g><path fill="#00e1d8" d="M7.768 13H0v2h9c-.474-.6-.853-1.3-1.232-2z"/></g><g><path fill="#00e1d8" d="M6.901 9V8H0v2h7c-.099-.3-.099-.7-.099-1z"/></g></g></g></svg>