<svg xmlns="http://www.w3.org/2000/svg" width="75" height="25" viewBox="0 0 75 25"><defs><clipPath id="rhl6a"><path d="M21.08 20.09h3.89v4.776h-3.89z"/></clipPath><clipPath id="rhl6b"><path d="M0 25h75V0H0z"/></clipPath></defs><g><g><g><path fill="#fff" d="M73.896 12.508a.322.322 0 0 1-.037.255l-.282.52a.318.318 0 0 1-.27.166.34.34 0 0 1-.147-.05l-2.062-1.31.307 2.047c0 .14-.098.254-.221.254l-.577.025c-.122 0-.22-.101-.233-.229l-.086-2.605-2.895-1.844.098 3.521 2.147 1.373c.05.038.086.09.098.153.012.063.012.127-.024.178l-.307.508a.234.234 0 0 1-.196.115.202.202 0 0 1-.123-.038l-1.57-1.297.073 2.504a.31.31 0 0 1-.307.318h-.576a.31.31 0 0 1-.307-.318l.073-2.504-1.558 1.297a.311.311 0 0 1-.135.038.23.23 0 0 1-.196-.115l-.307-.508c-.024-.051-.037-.115-.024-.178a.253.253 0 0 1 .098-.153l2.147-1.373.098-3.52L63.7 11.58l-.086 2.605c-.012.128-.11.23-.233.23l-.576-.026c-.123 0-.221-.115-.221-.242l.307-2.059-2.062 1.31a.303.303 0 0 1-.417-.127l-.282-.522a.333.333 0 0 1-.025-.242.323.323 0 0 1 .148-.19l2.134-1.182-1.865-.75c-.11-.077-.159-.217-.098-.33l.27-.522a.218.218 0 0 1 .197-.127c.036 0 .073.012.11.025l2.22 1.233L66.216 9 63.22 7.335 61 8.568a.348.348 0 0 1-.11.025.223.223 0 0 1-.209-.127l-.27-.521a.235.235 0 0 1 .086-.318l1.877-.763-2.135-1.182a.32.32 0 0 1-.11-.432l.282-.521a.334.334 0 0 1 .27-.153.33.33 0 0 1 .16.038l2.06 1.31-.306-2.047c0-.14.098-.254.22-.254l.578-.026c.122 0 .22.102.233.23l.086 2.605 2.895 1.856-.098-3.521-2.147-1.373a.25.25 0 0 1-.074-.33l.307-.509c.05-.076.11-.114.196-.114.05 0 .086.012.123.038l1.57 1.296-.073-2.504a.31.31 0 0 1 .307-.318h.576a.31.31 0 0 1 .307.318l-.073 2.504 1.558-1.296a.23.23 0 0 1 .123-.038c.073 0 .16.05.196.114l.307.509c.061.114.036.267-.074.33l-2.147 1.373-.098 3.521L70.3 6.432l.085-2.606c.013-.127.11-.229.234-.229l.576.026c.062 0 .123.025.16.076a.247.247 0 0 1 .061.165l-.307 2.06 2.062-1.31a.367.367 0 0 1 .16-.038c.097 0 .208.051.257.153l.282.521c.037.076.05.165.025.242a.366.366 0 0 1-.148.19l-2.122 1.182 1.865.75c.122.077.16.217.098.33l-.27.522a.218.218 0 0 1-.196.127.348.348 0 0 1-.11-.025L70.79 7.335 67.798 9l2.993 1.665 2.221-1.233a.348.348 0 0 1 .11-.025c.074 0 .16.05.197.127l.27.521a.252.252 0 0 1-.098.318l-1.878.763 2.135 1.182a.323.323 0 0 1 .148.19zm1.092 5.161V.331c0-.191-.148-.331-.32-.331H59.32A.33.33 0 0 0 59 .33v17.34c0 .177.147.33.319.33h15.362a.33.33 0 0 0 .319-.33z"/></g><g><path fill="#fff" d="M27.33 9.043c0 2.494-1.788 4.62-4.49 4.62-2.664 0-4.503-2.175-4.503-4.67v-.048c0-2.494 1.789-4.632 4.453-4.632 2.69 0 4.528 2.174 4.528 4.68v.05zM10.007 6.696c0 1.364-1.064 2.249-2.802 2.249H4.89v-4.57H7.18c1.763 0 2.827.785 2.827 2.272zM51.959.344l-3.077 10.014L45.48.295h-4.203l-3.402 10.063L34.798.344h-5.166L30.97 4.3C29.357 1.72 26.405 0 22.828 0c-3.64 0-6.667 1.806-8.268 4.497-.826-2.63-3.378-4.153-7.018-4.153H0v17.312h4.878v-4.952h2.414c2.615 0 4.791-.774 6.142-2.248.688 4.288 4.428 7.544 9.343 7.544 5.442 0 9.52-4.03 9.52-9.006v-.05c0-.282-.013-.552-.038-.835l3.264 9.67h4.253l3.527-9.965 3.553 9.965h4.253L57 .344z"/></g><g><path fill="#fff" d="M1.468 23.074H.686v-1.436h.782c.506 0 .836.251.836.718v.011c0 .422-.32.719-.836.719zM0 25h.675v-1.288h.775c.853 0 1.55-.467 1.55-1.367v-.012C3 21.536 2.424 21 1.528 21H0z"/></g><g><path fill="#fff" d="M4.832 22.983v-1.345h1.2c.62 0 .985.228.985.661v.011c0 .41-.378.673-.971.673zM4 21v4h.832v-1.39h1.034L7.02 25H8l-1.275-1.516c.671-.16 1.127-.547 1.127-1.208v-.011c0-.353-.147-.65-.389-.866-.295-.25-.765-.399-1.356-.399z"/></g><g><path fill="#fff" d="M12.126 22.519c0 .955-.67 1.717-1.612 1.717-.943 0-1.626-.79-1.626-1.731v-.014c0-.942.656-1.718 1.612-1.718.943 0 1.626.79 1.626 1.732v.014M8 22.514c0 1.367 1.025 2.5 2.486 2.486C11.962 25 13 23.867 13 22.5v-.014C13 21.133 11.975 20 10.5 20 9.038 20 8 21.133 8 22.5v.014"/></g><g><path fill="#fff" d="M14.563 21.65H13V21h4v.65h-1.563V25h-.874z"/></g><g><path fill="#fff" d="M17 21h2.966v.627h-2.259v1.037h2.008v.638h-2.008v1.071H20V25h-3z"/></g><g><g/><g clip-path="url(#rhl6a)"><path fill="#fff" d="M21.08 22.485v-.014c0-1.315.91-2.381 2.194-2.381.788 0 1.26.303 1.66.724l-.484.605c-.34-.342-.703-.579-1.188-.579-.812 0-1.406.724-1.406 1.631v.014c0 .907.594 1.644 1.406 1.644.521 0 .86-.223 1.224-.605l.485.526c-.449.5-.933.816-1.721.816-1.249 0-2.17-1.052-2.17-2.381"/></g></g><g><path fill="#fff" d="M26.563 21.65H25V21h4v.65h-1.563V25h-.874z"/></g><g><path fill="#fff" d="M34.104 22.519c0 .955-.665 1.717-1.602 1.717-.95 0-1.616-.79-1.616-1.731v-.014c0-.942.652-1.718 1.602-1.718.951 0 1.616.79 1.616 1.732v.014M30 22.514c0 1.367 1.022 2.5 2.493 2.486C33.965 25 35 23.867 35 22.5v-.014C35 21.133 33.978 20 32.507 20 31.035 20 30 21.133 30 22.5v.014"/></g><g><path fill="#fff" d="M35 23.275V21.01h.813v2.23c0 .728.454 1.12 1.187 1.12.72 0 1.173-.37 1.173-1.098V21H39v2.24c0 1.177-.787 1.76-2.013 1.76C35.773 25 35 24.417 35 23.275"/></g><g><path fill="#fff" d="M40.846 22.983v-1.345h1.194c.618 0 .98.228.98.661v.011c0 .41-.376.673-.966.673zM40 21v4h.832v-1.39h1.034L43.02 25H44l-1.262-1.516c.645-.16 1.114-.547 1.114-1.208v-.011c0-.353-.147-.65-.389-.866-.295-.25-.765-.399-1.356-.399z"/></g><g><path fill="#fff" d="M45 21.011h.897l1.11 2.938L48.16 21h.71l1.15 2.95 1.111-2.939H52L50.367 25h-.71l-1.15-2.847L47.356 25h-.723z"/></g><g/><g clip-path="url(#rhl6b)"><path fill="#fff" d="M53 25h1v-4h-1z"/></g><g clip-path="url(#rhl6b)"><path fill="#fff" d="M54 21h.748l2.452 2.758V21h.8v4h-.669l-2.544-2.849V25H54z"/></g><g clip-path="url(#rhl6b)"><path fill="#fff" d="M60.558 21.65H59V21h4v.65h-1.558V25h-.884z"/></g><g clip-path="url(#rhl6b)"><path fill="#fff" d="M63 21h2.977v.627h-2.279v1.037h2.016v.638h-2.016v1.071H66V25h-3z"/></g><g clip-path="url(#rhl6b)"><path fill="#fff" d="M67.838 22.983v-1.345h1.203c.621 0 .986.228.986.661v.011c0 .41-.378.673-.973.673zM67 25h.824v-1.39h1.04L70.028 25H71l-1.27-1.516c.675-.16 1.135-.547 1.135-1.208v-.011c0-.353-.149-.65-.392-.866-.297-.25-.77-.399-1.365-.399H67z"/></g><g clip-path="url(#rhl6b)"><path fill="#fff" d="M72 24.368l.408-.487c.375.321.739.51 1.224.51.42 0 .684-.2.684-.488v-.011c0-.277-.154-.432-.871-.587-.827-.2-1.29-.444-1.29-1.164v-.01c0-.666.55-1.131 1.323-1.131.563 0 1.004.177 1.4.487l-.363.51c-.342-.255-.695-.399-1.048-.399-.397 0-.629.21-.629.466v.01c0 .3.177.433.916.61.816.2 1.246.499 1.246 1.142v.01c0 .732-.562 1.164-1.379 1.164A2.46 2.46 0 0 1 72 24.368"/></g></g></g></svg>