<svg xmlns="http://www.w3.org/2000/svg" width="26" height="26" viewBox="0 0 26 26"><g><g><path fill="none" stroke="#00e1d8" stroke-miterlimit="50" d="M1 6a5 5 0 0 1 5-5h14a5 5 0 0 1 5 5v14a5 5 0 0 1-5 5H6a5 5 0 0 1-5-5z"/></g><g><path fill="#00e1d8" d="M17.412 13c.325 0 .588.263.588.588v3.824a.588.588 0 0 1-.588.588H8.588A.588.588 0 0 1 8 17.412V8.588C8 8.263 8.263 8 8.588 8h3.824a.588.588 0 0 1 0 1.177H9.177v7.647h7.647v-3.236c0-.325.263-.588.588-.588zm-2.647-3.823a.588.588 0 0 1 0-1.177h2.647c.324 0 .588.264.588.588v2.647a.588.588 0 0 1-1.176 0v-1.227l-3.408 3.408a.588.588 0 0 1-.832-.832l3.408-3.407z"/></g></g></svg>