<svg xmlns="http://www.w3.org/2000/svg" width="15" height="15" viewBox="0 0 15 15"><g><g><g><path fill="#00e1d8" d="M8.152 11.549a.68.68 0 1 1-1.359 0v-.34a.68.68 0 1 1 1.36 0zm6.794-4.076a7.472 7.472 0 0 1-7.473 7.473A7.472 7.472 0 0 1 0 7.473 7.472 7.472 0 0 1 7.473 0a7.472 7.472 0 0 1 7.473 7.473zm-1.359 0a6.114 6.114 0 1 0-12.228 0 6.114 6.114 0 1 0 12.228 0zM8.152 8.832a.68.68 0 1 1-1.359 0v-.896c0-.542.358-1.015.875-1.17a.68.68 0 0 0 .484-.652.7.7 0 0 0-.68-.679.68.68 0 0 0-.679.68.68.68 0 1 1-1.358 0c0-1.126.913-2.039 2.038-2.039 1.11 0 2.038.929 2.038 2.038 0 .873-.554 1.638-1.359 1.922z"/></g></g></g></svg>